<svg id="图层_1" data-name="图层 1" xmlns="http://www.w3.org/2000/svg" xmlns:xlink="http://www.w3.org/1999/xlink" viewBox="0 0 85.12 85"><defs><style>.cls-1{fill:url(#未命名的渐变_14);}</style><linearGradient id="未命名的渐变_14" x1="37.03" y1="22.18" x2="89.39" y2="112.87" gradientUnits="userSpaceOnUse"><stop offset="0" stop-color="#29cdff"/><stop offset="0.36" stop-color="#1592ff"/><stop offset="0.63" stop-color="#148eff"/><stop offset="1" stop-color="#0a60ff"/></linearGradient></defs><title>logo</title><g id="Vue"><g id="Group"><path class="cls-1" d="M108.57,47.6,88.35,67.82a3.52,3.52,0,0,1-5,0h0L63.3,47.6a3.54,3.54,0,0,1,0-5h0L83.52,22.54a3.54,3.54,0,0,1,5,0h0l20,20.22A3.45,3.45,0,0,1,108.57,47.6Zm-52,58.9H28A3.53,3.53,0,0,1,24.44,103V74.38a3.52,3.52,0,0,1,3.48-3.58H56.59a3.53,3.53,0,0,1,3.58,3.48v28.66a3.54,3.54,0,0,1-3.51,3.56Zm0-42.87H28a3.53,3.53,0,0,1-3.58-3.48V31.54A3.54,3.54,0,0,1,27.92,28H56.59a3.54,3.54,0,0,1,3.58,3.49V60.1a3.53,3.53,0,0,1-3.48,3.58h-.1Zm14.28,7.14H99.43A3.53,3.53,0,0,1,103,74.25v28.67a3.53,3.53,0,0,1-3.48,3.58H70.87A3.54,3.54,0,0,1,67.28,103V74.38a3.54,3.54,0,0,1,3.51-3.56h.08Z" transform="translate(-24.44 -21.5)"/></g></g></svg>